<?xml version="1.0" encoding="UTF-8"?>
<svg id="Layer_1" xmlns="http://www.w3.org/2000/svg" version="1.1" viewBox="0 0 2500 790">
  <!-- Generator: Adobe Illustrator 29.4.0, SVG Export Plug-In . SVG Version: 2.1.0 Build 152)  -->
  <defs>
    <style>
      .st0 {
        fill: #fff;
      }
    </style>
  </defs>
  <path class="st0" d="M1261.9,93.8c20.1,0,40.3,3.9,53.5,12.4l-12.3,52.3c-17.7-3.9-31.2-6.1-41.5-6.1-33.7,0-33.5,23.7-33.5,89.6h82l-21.2,52.3-60.9.4v246.4c-6.1.7-19.8,1.3-33.3,1.3s-27-.6-32.4-2v-245.3l-33-.7-20.4-52,53.4-.4.7-66.1c-.7-23.4,20.4-59.7,49.4-73.1,12.8-5.8,31-9.1,49.3-9.1M469.7,96.3c166.8,0,276.5,134.2,244.9,299.9-31.6,165.8-192.6,299.9-359.5,299.9S78.5,562,110,396.3c31.8-165.8,192.6-299.9,359.7-299.9M268.4,654.8c-57.7-35.2-112.9-82.2-117.3-188.5,2.7-86.8,35-154.7,90-208.4,37.9-37.2,80.3-69.2,135.8-85.3v22c-45,6.3-88.1,41.2-96,87.1-10.7,62.3,23.1,114.6,83.5,140.3,25.2,12.2,81,32.1,92.6,56.5,6.7,14.9,3.3,26.7-11.1,35.4-11,5.2-23.4,7.3-36.1,7.3-21.7,0-44.4-6.4-62.5-15-15.6-7.6-23.4-15.9-38.3-15.9-.8,0-1.6,0-2.3,0-13.8,1.3-22.3,28.3-23.6,39.9-.2,6.4-1.1,22.7,6,26.1,15.4,10,30.9,18.7,46.1,24.7,14.2,4.4,28.5,7.6,43,9.1,1.3.4,2.4,1.3,2.2,4.2-.5,19.6-1.3,39.4-1.8,59,.4,9.5.5,15.8,11.8,16.2,141.6-14.9,272-131.6,299-273.4,23.2-121.6-36.7-224.9-140-261.1,99.9,45.8,133.6,132.9,123.3,225.5-4.7,33-14.5,61.2-27.2,86.6-18.7,45.6-54.3,80.8-92.4,114.4-29.4,21.2-59.6,40.7-93.9,51.7-.8.2-1.6.4-2.4.4-.6,0-1.1-.1-1.6-.4.5-9.8.9-19.4,1.4-29.2,16-2.5,31.4-9.8,46.8-18,10.9-5.8,21.1-14,30.3-24.5,11.1-10.5,18.3-27.2,24.3-46.5,5.1-23.6,3.1-46.8-5.6-69.7-12-23.1-30.7-42.1-56.8-56.8-30.3-16.3-60.6-32.9-91-49.2-10.5-6.5-20.1-14.2-26-25.8-6.7-15.6,0-25.6,14.2-32.3,7.6-3.5,15.9-5.2,24.2-5.2,3.9,0,7.9.4,11.9,1,10,2.4,58.1,15.6,57.5,17.6,1.6.8,3.5,1.3,5.7,1.3,14.1,0,37.8-18.1,37.2-54.6-22-18.7-49.2-26.9-78.1-32.7,1.3-18.3,2.4-36.7,3.6-55-3.1-7.8-3.5-8.4-9.3-11.8-146.2,9.6-282.7,128.7-310.5,274.3-22.7,118.9,33.9,220.2,133.1,258.5M1986,153.3v88.7c28,0,55.6-.2,83-.2s27.4,0,41,.2c43.4.4,63.8,14.5,77.9,47.1,10.4,24.1,66.8,165.5,74.2,173.7l73.1-220.8h69l-103.9,287.2c-18.6,50.5-35.6,95.8-65.3,128-21.1,23-52.7,34.7-87.5,34.7s-41.7-4-62.8-12.1l14.8-53.4c14.8,3.3,30.9,10.4,47.8,10.4s35.7-7.5,54.6-34.2c5.2-7,29.3-49.7,27.1-60.5l-108.4-247.2-134.7-.4v144.4c0,23.4-1.5,47.2,18.6,53.1,4.3,1.3,8.7,2,13.1,2,16.9,0,31.6-9.5,44.4-14.3l21.5,44.9c-22.6,14.7-52.8,23.6-81,23.6s-62.3-11.7-75.2-39.9c-3.3-7-5.6-16.7-7-33.8l-.8-178.5-53.1-1.5-.4-53.1,53.4-.7v-66.4c10.7-5.6,51.9-17.8,66.4-21.2M1761.3,234.1c28.4,0,50.9,8.4,78.8,19.5v57.1c-7.8-3.3-14.8-8.1-24.5-12.6-14.1-6-30.6-9.2-46.8-9.2s-29.8,2.7-42.3,8.4c-67.2,30.8-72,154.4-5.6,187,14.7,7.3,28.4,10.1,41.6,10.1,25,0,47.8-10.3,70.9-19.8,4.5,4.4,17.4,37.5,19.3,44.9-18.8,17-56.1,29.1-96.2,29.1-70,0-148.4-36.9-151-149-1.5-75,41.9-143.6,116.9-161,14.5-3.2,27.1-4.7,38.8-4.7M1442.2,234.6c.6,0,1.3,0,1.9,0,100.9.7,127.3,86.5,127.3,174l-192.2.4c1.1,41.5,23.4,69.4,55.3,80.9,12.3,4.3,23.7,5.9,34.3,5.9,31,0,55.3-14.3,75.2-20.4l18.6,46.7c-17.4,6-28.6,14.8-52,20.4-17.4,4.1-34.2,6.1-50.3,6.1-81.6,0-142.7-51.8-148.6-144.5-5.2-87,33.2-169.6,130.5-169.6M1378.5,361.2h124.3c-.4-39.7-20.8-74.6-60.9-74.6-41.6.4-60.1,34.1-63.5,74.6M972.2,234.7c14,0,28.1,2,41.1,6.2,75,23.4,86.8,100.6,86.8,167.7h-191.9c1,58.2,41.2,86.6,90.4,86.6s15.3-.7,23.2-2c22.6-4.1,33.4-12.6,50.8-17.4l18.6,43.8c-20.4,18.6-64.9,28.2-99.8,28.6-.9,0-1.7,0-2.5,0-179.7,0-184.4-235.2-81-297.3,17.8-10.6,41-16.2,64.3-16.2M1032.6,361.2c-1.8-40.7-21.1-74.6-61.4-74.6h-1.3c-42.7.7-57.9,33.8-62.7,73.9l125.4.7Z"/>
</svg>