<?xml version="1.0" encoding="UTF-8"?>
<svg id="Layer_1" xmlns="http://www.w3.org/2000/svg" version="1.1" viewBox="0 0 500 288.8">
  <!-- Generator: Adobe Illustrator 29.4.0, SVG Export Plug-In . SVG Version: 2.1.0 Build 152)  -->
  <defs>
    <style>
      .st0 {
        fill: #feca00;
      }

      .st1 {
        fill: #851fa6;
      }

      .st2 {
        isolation: isolate;
      }

      .st3 {
        fill: #fff;
      }

      .st4 {
        fill: #841fa6;
      }

      .st5 {
        fill: #28d1e3;
      }

      .st6 {
        fill: #0c005f;
      }

      .st7 {
        display: none;
      }

      .st8 {
        fill: #fe7e00;
      }
    </style>
  </defs>
  <g class="st2">
    <path class="st1" d="M39.5,255.5v-50.1h11l14.5,20,14.5-20h11v50.1h-11v-32.8h-.1l-14.3,19.6h-.3l-14.3-19.6h-.1v32.8h-11Z"/>
    <path class="st1" d="M133.5,218.8v36.7h-9.2l-.6-4.1c-3.2,3.5-6.9,5.1-11.2,5.1-7.7,0-12.4-5.2-12.4-13.8v-23.9h10.6v22.4c0,4.2,1.9,6.4,5.4,6.4s4.7-1.1,6.7-3.2v-25.6h10.6Z"/>
    <path class="st1" d="M142.6,255.5v-36.7h10.4v3.5c3-3,6.5-4.4,10.5-4.4,7.7,0,12.4,5.2,12.4,13.8v23.9h-10.6v-22.4c0-4.2-1.9-6.4-5.4-6.4s-4.8,1.1-6.7,3.2v25.6h-10.6Z"/>
    <path class="st1" d="M209.8,255.5l-.6-4c-3,3.3-6.6,4.9-10.7,4.9-9.2,0-15.1-7.4-15.1-19s6.2-19.7,15.5-19.7,6.7,1.3,9.5,4.2v-16.6h10.6v50.1h-9.2ZM208.4,244.5v-14.5c-2.1-2.2-4.3-3.2-6.7-3.2-4.8,0-7.7,4-7.7,10.6s2.8,10.3,7.7,10.3,4.7-1.1,6.7-3.1Z"/>
    <path class="st1" d="M226.4,237.2c0-11.6,7.1-19.4,17.9-19.4s17.7,7.7,17.7,19.3-7.1,19.4-17.9,19.4-17.7-7.7-17.7-19.3ZM251.4,237.1c0-6.5-2.8-10.4-7.2-10.4s-7.2,4-7.2,10.4,2.8,10.4,7.2,10.4,7.2-4,7.2-10.4Z"/>
    <path class="st1" d="M299,255.5v-40.1h-13.6v-10h38.1v10h-13.6v40.1h-11Z"/>
    <path class="st1" d="M321.5,237.2c0-11.6,7.1-19.4,17.9-19.4s17.7,7.7,17.7,19.3-7.1,19.4-17.9,19.4-17.7-7.7-17.7-19.3ZM346.5,237.1c0-6.5-2.8-10.4-7.2-10.4s-7.2,4-7.2,10.4,2.8,10.4,7.2,10.4,7.2-4,7.2-10.4Z"/>
    <path class="st1" d="M397.8,218.8v36.7h-9.2l-.6-4.1c-3.2,3.5-6.9,5.1-11.2,5.1-7.7,0-12.4-5.2-12.4-13.8v-23.9h10.6v22.4c0,4.2,1.9,6.4,5.4,6.4s4.7-1.1,6.7-3.2v-25.6h10.6Z"/>
    <path class="st1" d="M406.9,255.5v-36.7h10.4v4.4c2.3-3.6,5.3-5.4,8.9-5.4s1.7,0,2.3.2v10c-.9-.1-1.6-.1-2.7-.1-3,0-6,1.3-8.3,3.5v24.1h-10.6Z"/>
    <path class="st1" d="M447.8,217.8c4.7,0,9.5,1.5,14.1,4.2l-4.5,7.6c-3.3-2.3-6.6-3.6-9.2-3.6s-4.2,1.1-4.2,2.9c0,5.6,18.6,2.5,18.6,15.3s-6.1,12.3-15,12.3-11-1.8-15.9-4.9l4.5-7.6c4,2.8,8,4.3,11.3,4.3s4.5-1.1,4.5-3c0-5.8-18.6-2.8-18.6-15.5s5.9-12.1,14.5-12.1Z"/>
  </g>
  <g>
    <g>
      <path class="st6" d="M363.8,167.9h-35.5c-14.3-25.5-35.2-9.1-54.2-2-46.7,17.4-66.5-11.1-50.9-54.7,10.3-28.8,30.8-57.4,43.3-85.6l1.2-1.4h27c20.4,42.7,41.8,85,62.2,127.7,2.5,5.2,5.2,10.6,7,15.9h-.1ZM281.4,71.7c-1.5-.3-1,.2-1.4.8-2.1,3.2-4.6,8.7-6.5,12.4-4.5,8.6-9.5,18-13.4,26.8s-14.7,31.2.8,30.4c9.6-.5,25.5-10.8,35.4-14.3s7.1-2.3,10.8-2.7l-25.8-53.4s.1,0,.1,0Z"/>
      <path class="st6" d="M414.1,140.9h59.4l.9.9v25.2l-.9.9h-91.8l-.9-.9V24.9l.9-.9h31.4l.9.9v116h.1Z"/>
    </g>
    <circle class="st0" cx="85.9" cy="134.9" r="48.2"/>
    <circle class="st4" cx="133.8" cy="73.2" r="59.2"/>
    <circle class="st8" cx="143.4" cy="134.7" r="33.1" transform="translate(-13 254.1) rotate(-80.6)"/>
    <circle class="st5" cx="64.2" cy="88.4" r="38.5"/>
    <path class="st3" d="M51.6,101.9c-3.9-3.2-4-5.9-3.4-10.9,2.7-23.2,36.9-18.2,52.8-14.8,5.1,1.1,10.5,2.7,15.6,4.2,4.8,1.5,18.1,7.3,21.8,7.1.8,0,1.7-.2,2.4-.6,8.3-14.3,29.2-31,15.2-48.5-10.6-13.2-32.9-9.3-37.4,7.3-3.6,13.4,5.3,21,11.9,31.1-11.4-3.4-22.8-7.5-34.6-9.4-18.4-3.1-47.4-4.5-54.3,17.7-9.3,30,26.9,30.9,46.7,32.6,2.7.2,5.5.4,8.2.6,5.7.5,11.3.8,17,1.3,10.8.9,34.8,2,41.5,11.6,7.5,10.8-6.3,16-14.3,18.4-7.9,2.3-16.5,3.3-24.7,4-2.8.2-26.3,1.9-33,.6-2.3-.4-2.7-4.8-5.8-6.8-14.6-9.5-23,15.4-8.4,18.5,7.9,1.7,8.3-3.5,11.7-4.1,7.1-1.4,22.3-.4,30.4-.7,4.5-.2,8.2,0,12.6-.6,15.2-1.7,47.8-6.9,39.9-29.5-5.1-14.7-31.1-17.6-44.3-18.9-1.7-.2-21.5-1.1-23.3-1.3-11.5-.9-35.5-1.6-44.3-8.8h.1ZM128,50.4c0-6.1,5-11.1,11.1-11.1s11.1,5,11.1,11.1-5,11.1-11.1,11.1-11.1-5-11.1-11.1Z"/>
    <g class="st7">
      <g>
        <path class="st0" d="M96.5,118.3c-.3,1.3.8,1.3,1.5,1.9,3.5,2.7,8,6,12.3,6.9-.5,9.6,0,18.4,5.7,26.4-2.8.2-26.3,1.9-33,.6s-2.7-4.8-5.8-6.8c-14.6-9.5-23,15.4-8.4,18.5,7.9,1.7,8.3-3.5,11.7-4.1,7.1-1.4,22.3-.4,30.4-.7,4.5-.2,8.2,0,12.6-.6.4.5.8,1.6,1.3,1.9-8.4,14-26.9,21.9-43,20.7-30.8-2.4-53.3-34.8-41.9-64.1,12.8,10.3,33.4,11,46.6,1,.9-.7,1.9-.8,1.8-2.3,2.7.2,5.5.4,8.2.6h0Z"/>
        <path class="st8" d="M172.6,118.3c10.7,19.6-1.3,44.9-23.1,48.9s-18.6-.3-24.7-4.9c-.4-.3-.8-1.4-1.3-1.9,15.2-1.7,47.8-6.9,39.9-29.5-5.1-14.7-31.1-17.6-44.3-18.9,14.2-17.2,43-12.9,53.5,6.3h0Z"/>
        <path class="st8" d="M116,153.5c-5.8-8-6.2-16.8-5.7-26.4l3.1-7.5c10.8.9,34.8,2,41.5,11.6,6.7,9.6-6.3,16-14.3,18.4s-16.5,3.3-24.7,4h.1Z"/>
        <path class="st4" d="M113.5,119.5l-3.1,7.5c-4.3-.9-8.8-4.2-12.3-6.9s-1.8-.6-1.5-1.9c5.7.5,11.3.8,17,1.3h0Z"/>
      </g>
      <g>
        <path class="st5" d="M78.3,52.9c7,2.8,13.5,8.2,17.6,14.5-18.4-3.1-47.4-4.5-54.3,17.7-9.3,30,26.9,30.9,46.7,32.6,0,1.4-.9,1.6-1.8,2.3-13.2,10-33.8,9.3-46.6-1-33.9-27.2-2.6-82.2,38.4-66h0Z"/>
        <path class="st5" d="M100.9,76.1c3.2,12.2,1.8,24-5,34.6-11.5-.9-35.5-1.6-44.3-8.8s-4-5.9-3.4-10.9c2.7-23.2,36.9-18.2,52.8-14.8h0Z"/>
        <g>
          <path class="st4" d="M172.6,118.3c-10.5-19.2-39.2-23.5-53.5-6.3-1.7-.2-21.5-1.1-23.3-1.3,6.8-10.6,8.3-22.4,5-34.6,5.1,1.1,10.5,2.7,15.6,4.2,4.8,1.5,18.1,7.3,21.8,7.1s1.7-.2,2.4-.6c8.3-14.3,29.2-31,15.2-48.5-10.6-13.2-32.9-9.3-37.4,7.3-3.6,13.4,5.3,21,11.9,31.1-11.4-3.4-22.8-7.5-34.6-9.4-4.1-6.2-10.6-11.7-17.6-14.5,13.2-35.9,56.2-50.4,88.5-29.1,32.7,21.6,35.2,68.8,5.8,94.5h.2Z"/>
          <circle class="st1" cx="139.1" cy="50.4" r="11.1"/>
        </g>
      </g>
    </g>
  </g>
</svg>