<?xml version="1.0" encoding="UTF-8"?>
<svg id="Layer_1" data-name="Layer 1" xmlns="http://www.w3.org/2000/svg" viewBox="0 0 500 288.8">
  <defs>
    <style>
      .cls-1 {
        fill: #feca00;
      }

      .cls-2 {
        fill: #851fa6;
      }

      .cls-3 {
        isolation: isolate;
      }

      .cls-4 {
        fill: #fff;
      }

      .cls-5 {
        fill: #841fa6;
      }

      .cls-6 {
        fill: #28d1e3;
      }

      .cls-7 {
        fill: #0c005f;
      }

      .cls-8 {
        fill: #fe7e00;
      }
    </style>
  </defs>
  <g class="cls-3">
    <path class="cls-2" d="M39.48,255.5v-50.13h11.01l14.54,19.98,14.54-19.98h11.01v50.13h-11.01v-32.76h-.14l-14.26,19.56h-.28l-14.26-19.56h-.14v32.76h-11.01Z"/>
    <path class="cls-2" d="M133.52,218.79v36.71h-9.18l-.56-4.09c-3.25,3.46-6.92,5.08-11.23,5.08-7.7,0-12.36-5.22-12.36-13.84v-23.86h10.59v22.38c0,4.17,1.91,6.42,5.44,6.42,2.33,0,4.73-1.13,6.71-3.18v-25.63h10.59Z"/>
    <path class="cls-2" d="M142.56,255.5v-36.71h10.45v3.46c2.97-2.96,6.5-4.45,10.52-4.45,7.7,0,12.36,5.22,12.36,13.84v23.86h-10.59v-22.38c0-4.17-1.91-6.42-5.44-6.42-2.4,0-4.8,1.13-6.71,3.25v25.56h-10.59Z"/>
    <path class="cls-2" d="M209.77,255.5l-.56-3.95c-3.04,3.32-6.57,4.94-10.73,4.94-9.18,0-15.11-7.41-15.11-18.99s6.21-19.7,15.46-19.7c3.67,0,6.71,1.34,9.53,4.17v-16.59h10.59v50.13h-9.18ZM208.36,244.49v-14.54c-2.12-2.19-4.31-3.25-6.71-3.25-4.8,0-7.7,3.95-7.7,10.59s2.82,10.31,7.7,10.31c2.47,0,4.73-1.06,6.71-3.11Z"/>
    <path class="cls-2" d="M226.43,237.21c0-11.65,7.13-19.42,17.86-19.42s17.72,7.7,17.72,19.28-7.13,19.42-17.86,19.42-17.72-7.7-17.72-19.27ZM251.42,237.14c0-6.5-2.82-10.45-7.2-10.45s-7.2,3.95-7.2,10.45,2.82,10.45,7.2,10.45,7.2-3.95,7.2-10.45Z"/>
    <path class="cls-2" d="M299.01,255.5v-40.1h-13.56v-10.03h38.12v10.03h-13.56v40.1h-11.01Z"/>
    <path class="cls-2" d="M321.46,237.21c0-11.65,7.13-19.42,17.86-19.42s17.72,7.7,17.72,19.28-7.13,19.42-17.86,19.42-17.72-7.7-17.72-19.27ZM346.45,237.14c0-6.5-2.82-10.45-7.2-10.45s-7.2,3.95-7.2,10.45,2.82,10.45,7.2,10.45,7.2-3.95,7.2-10.45Z"/>
    <path class="cls-2" d="M397.85,218.79v36.71h-9.18l-.57-4.09c-3.25,3.46-6.92,5.08-11.23,5.08-7.7,0-12.36-5.22-12.36-13.84v-23.86h10.59v22.38c0,4.17,1.91,6.42,5.44,6.42,2.33,0,4.73-1.13,6.71-3.18v-25.63h10.59Z"/>
    <path class="cls-2" d="M406.88,255.5v-36.71h10.45v4.45c2.26-3.6,5.29-5.44,8.9-5.44.78,0,1.69.07,2.26.21v9.96c-.92-.14-1.62-.14-2.68-.14-2.97,0-6,1.34-8.33,3.53v24.15h-10.59Z"/>
    <path class="cls-2" d="M447.76,217.8c4.66,0,9.53,1.48,14.05,4.24l-4.52,7.55c-3.32-2.33-6.64-3.6-9.25-3.6-2.47,0-4.17,1.13-4.17,2.89,0,5.65,18.64,2.54,18.64,15.32,0,7.34-6.07,12.29-15.04,12.29-5.37,0-11.01-1.76-15.88-4.94l4.52-7.55c4.02,2.75,8.05,4.31,11.3,4.31,2.75,0,4.52-1.13,4.52-2.97,0-5.79-18.64-2.82-18.64-15.46,0-7.13,5.93-12.07,14.47-12.07Z"/>
  </g>
  <g>
    <g>
      <path class="cls-7" d="M363.8,167.9h-35.5c-14.3-25.5-35.2-9.1-54.2-2-46.7,17.4-66.5-11.1-50.9-54.7,10.3-28.8,30.8-57.4,43.3-85.6l1.2-1.4h27c20.4,42.7,41.8,85,62.2,127.7,2.5,5.2,5.2,10.6,7,15.9h-.1v.1ZM281.4,71.7c-1.5-.3-1,.2-1.4.8-2.1,3.2-4.6,8.7-6.5,12.4-4.5,8.6-9.5,18-13.4,26.8s-14.7,31.2.8,30.4c9.6-.5,25.5-10.8,35.4-14.3s7.1-2.3,10.8-2.7l-25.8-53.4s.1,0,.1,0Z"/>
      <path class="cls-7" d="M414.1,140.9h59.4l.9.9v25.2l-.9.9h-91.8l-.9-.9V24.9l.9-.9h31.4l.9.9v116h.1Z"/>
    </g>
    <circle class="cls-1" cx="85.9" cy="134.9" r="48.2"/>
    <circle class="cls-5" cx="133.8" cy="73.2" r="59.2"/>
    <circle class="cls-8" cx="143.4" cy="134.73" r="33.1" transform="translate(-13 254.12) rotate(-80.57)"/>
    <circle class="cls-6" cx="64.2" cy="88.4" r="38.5"/>
    <path class="cls-4" d="M51.6,101.9c-3.9-3.2-4-5.9-3.4-10.9,2.7-23.2,36.9-18.2,52.8-14.8,5.1,1.1,10.5,2.7,15.6,4.2,4.8,1.5,18.1,7.3,21.8,7.1.8,0,1.7-.2,2.4-.6,8.3-14.3,29.2-31,15.2-48.5-10.6-13.2-32.9-9.3-37.4,7.3-3.6,13.4,5.3,21,11.9,31.1-11.4-3.4-22.8-7.5-34.6-9.4-18.4-3.1-47.4-4.5-54.3,17.7-9.3,30,26.9,30.9,46.7,32.6,2.7.2,5.5.4,8.2.6,5.7.5,11.3.8,17,1.3,10.8.9,34.8,2,41.5,11.6,7.5,10.8-6.3,16-14.3,18.4-7.9,2.3-16.5,3.3-24.7,4-2.8.2-26.3,1.9-33,.6-2.3-.4-2.7-4.8-5.8-6.8-14.6-9.5-23,15.4-8.4,18.5,7.9,1.7,8.3-3.5,11.7-4.1,7.1-1.4,22.3-.4,30.4-.7,4.5-.2,8.2,0,12.6-.6,15.2-1.7,47.8-6.9,39.9-29.5-5.1-14.7-31.1-17.6-44.3-18.9-1.7-.2-21.5-1.1-23.3-1.3-11.5-.9-35.5-1.6-44.3-8.8h.1v-.1ZM128,50.4c0-6.1,5-11.1,11.1-11.1s11.1,5,11.1,11.1-5,11.1-11.1,11.1-11.1-5-11.1-11.1Z"/>
  </g>
</svg>