<?xml version="1.0" encoding="UTF-8"?>
<svg id="Layer_1" xmlns="http://www.w3.org/2000/svg" version="1.1" viewBox="0 0 500 288.8">
  <!-- Generator: Adobe Illustrator 29.4.0, SVG Export Plug-In . SVG Version: 2.1.0 Build 152)  -->
  <defs>
    <style>
      .st0 {
        isolation: isolate;
      }

      .st1 {
        fill: #fff;
      }

      .st2 {
        fill: #dcdbdd;
      }

      .st3 {
        fill: #f2f2f2;
      }
    </style>
  </defs>
  <g class="st0">
    <path class="st1" d="M39.5,255.5v-50.1h11l14.5,20,14.5-20h11v50.1h-11v-32.8h-.1l-14.3,19.6h-.3l-14.3-19.6h-.1v32.8s-11,0-11,0Z"/>
    <path class="st1" d="M133.5,218.8v36.7h-9.2l-.6-4.1c-3.2,3.5-6.9,5.1-11.2,5.1-7.7,0-12.4-5.2-12.4-13.8v-23.9h10.6v22.4c0,4.2,1.9,6.4,5.4,6.4s4.7-1.1,6.7-3.2v-25.6h10.6Z"/>
    <path class="st1" d="M142.6,255.5v-36.7h10.4v3.5c3-3,6.5-4.4,10.5-4.4,7.7,0,12.4,5.2,12.4,13.8v23.9h-10.6v-22.4c0-4.2-1.9-6.4-5.4-6.4s-4.8,1.1-6.7,3.2v25.6h-10.6Z"/>
    <path class="st1" d="M209.8,255.5l-.6-3.9c-3,3.3-6.6,4.9-10.7,4.9-9.2,0-15.1-7.4-15.1-19s6.2-19.7,15.5-19.7,6.7,1.3,9.5,4.2v-16.6h10.6v50.1h-9.2ZM208.4,244.5v-14.5c-2.1-2.2-4.3-3.2-6.7-3.2-4.8,0-7.7,3.9-7.7,10.6s2.8,10.3,7.7,10.3,4.7-1.1,6.7-3.1Z"/>
    <path class="st1" d="M226.4,237.2c0-11.6,7.1-19.4,17.9-19.4s17.7,7.7,17.7,19.3-7.1,19.4-17.9,19.4-17.7-7.7-17.7-19.3h0ZM251.4,237.1c0-6.5-2.8-10.4-7.2-10.4s-7.2,3.9-7.2,10.4,2.8,10.4,7.2,10.4,7.2-3.9,7.2-10.4Z"/>
    <path class="st1" d="M299,255.5v-40.1h-13.6v-10h38.1v10h-13.6v40.1h-11,0Z"/>
    <path class="st1" d="M321.5,237.2c0-11.6,7.1-19.4,17.9-19.4s17.7,7.7,17.7,19.3-7.1,19.4-17.9,19.4-17.7-7.7-17.7-19.3h0ZM346.5,237.1c0-6.5-2.8-10.4-7.2-10.4s-7.2,3.9-7.2,10.4,2.8,10.4,7.2,10.4,7.2-3.9,7.2-10.4Z"/>
    <path class="st1" d="M397.9,218.8v36.7h-9.2l-.6-4.1c-3.2,3.5-6.9,5.1-11.2,5.1-7.7,0-12.4-5.2-12.4-13.8v-23.9h10.6v22.4c0,4.2,1.9,6.4,5.4,6.4s4.7-1.1,6.7-3.2v-25.6h10.6Z"/>
    <path class="st1" d="M406.9,255.5v-36.7h10.5v4.4c2.3-3.6,5.3-5.4,8.9-5.4s1.7,0,2.3.2v10c-.9-.1-1.6-.1-2.7-.1-3,0-6,1.3-8.3,3.5v24.1h-10.6Z"/>
    <path class="st1" d="M447.8,217.8c4.7,0,9.5,1.5,14,4.2l-4.5,7.6c-3.3-2.3-6.6-3.6-9.2-3.6s-4.2,1.1-4.2,2.9c0,5.6,18.6,2.5,18.6,15.3s-6.1,12.3-15,12.3-11-1.8-15.9-4.9l4.5-7.6c4,2.8,8,4.3,11.3,4.3s4.5-1.1,4.5-3c0-5.8-18.6-2.8-18.6-15.5s5.9-12.1,14.5-12.1h0Z"/>
  </g>
  <g>
    <path class="st1" d="M363.8,167.9h-35.5c-14.3-25.5-35.2-9.1-54.2-2-46.7,17.4-66.5-11.1-50.9-54.7,10.3-28.8,30.8-57.4,43.3-85.6l1.2-1.4h27c20.4,42.7,41.8,85,62.2,127.7,2.5,5.2,5.2,10.6,7,15.9h-.1ZM281.4,71.7c-1.5-.3-1,.2-1.4.8-2.1,3.2-4.6,8.7-6.5,12.4-4.5,8.6-9.5,18-13.4,26.8s-14.7,31.2.8,30.4c9.6-.5,25.5-10.8,35.4-14.3s7.1-2.3,10.8-2.7l-25.8-53.4s.1,0,.1,0Z"/>
    <path class="st1" d="M414.1,140.9h59.4l.9.9v25.2l-.9.9h-91.8l-.9-.9V24.9l.9-.9h31.4l.9.9v116h.1Z"/>
  </g>
  <path class="st2" d="M110.6,160.8c-8.1.3-23.3-.7-30.4.7-3.4.6-3.8,5.8-11.7,4.1-14.6-3.1-6.2-28,8.4-18.5,3.1,2,3.5,6.4,5.8,6.8,6.7,1.3,30.2-.4,33-.6,0,0,.1,0,.2,0-4.7-6.8-6.9-15.4-5.5-24.3,0-.5.2-1,.3-1.5-5.7-2.4-11-5.7-15.7-9.6-2.1-.2-4.2-.3-6.3-.5-6.7,5.7-15.4,9.1-24.9,9.1s-17.2-3.1-23.7-8.2c-1.8,5.1-2.8,10.5-2.8,16.2,0,26.6,21.6,48.2,48.2,48.2s30.8-8.1,39.5-20.6c-.9-.6-1.8-1.2-2.7-1.9-4.1.5-7.6.3-11.8.5Z"/>
  <path class="st3" d="M138.8,61.2c6.1,0,11.1-5,11.1-11.1s-5-11.1-11.1-11.1-11.1,5-11.1,11.1,5,11.1,11.1,11.1Z"/>
  <g>
    <path class="st3" d="M133.5,13.7c-25.4,0-47.1,16.1-55.5,38.6,7.5,3,13.9,8.2,18.2,14.9,11.6,1.9,22.8,5.9,34,9.3-6.6-10.1-15.5-17.7-11.9-31.1,4.5-16.6,26.8-20.5,37.4-7.3,14,17.5-6.9,34.2-15.2,48.5-.7.4-1.6.6-2.4.6-3.7.2-17-5.6-21.8-7.1-5.1-1.5-10.5-3.1-15.6-4.2,0,0-.2,0-.3,0,1.3,3.9,2,8,2,12.3s0,.9,0,1.3c-.3,7.8-2.9,15.1-7.1,21.1,0,0,.2,0,.3,0,1.8.2,21.6,1.1,23.3,1.3,0,0,0,0,.1,0,1.8-1.9,3.8-3.6,6-5,6.7-4.4,15-6.4,23.6-5,10.2,1.7,18.5,7.9,23.3,16.2,12.8-10.9,20.9-27,20.9-45.1,0-32.7-26.5-59.2-59.2-59.2Z"/>
    <path class="st3" d="M96.2,118c-.4,0-.8,0-1.1,0,4.7,4,9.9,7.2,15.7,9.6.6-2.9,1.6-5.7,2.9-8.2-.1,0-.3,0-.4,0-5.7-.5-11.3-.8-17-1.3Z"/>
  </g>
  <g>
    <path class="st1" d="M140.4,149.3c8-2.4,21.8-7.6,14.3-18.4-.5-.7-1.1-1.4-1.8-2.1-4.5-4.1-12.8-6.3-21-7.6-6.8-1.1-13.6-1.5-18.3-1.9-1.3,2.5-2.3,5.3-2.9,8.2-.1.5-.2,1-.3,1.5-1.5,8.8.7,17.4,5.5,24.3,4.9-.4,9.9-1,14.9-1.8,3.3-.6,6.5-1.3,9.6-2.2Z"/>
    <path class="st1" d="M171.9,118c-4.8-8.3-13.1-14.5-23.3-16.2-8.5-1.4-16.9.6-23.6,5-2.2,1.4-4.2,3.1-6,5,2.8.3,6.1.6,9.7,1.1,11.3,1.6,25.1,4.9,31.6,12.8,1.2,1.5,2.2,3.2,2.8,5,7.3,21-20.2,27-36.4,29.1-1.2.2-2.4.3-3.5.4-.3,0-.5,0-.8,0,.9.7,1.7,1.3,2.7,1.9,3.7,2.4,7.9,4.1,12.6,4.9,18,3,35.1-9.2,38.1-27.2,1.3-7.8-.3-15.5-3.9-21.9Z"/>
  </g>
  <path class="st1" d="M74.8,65.4c7.3-.2,14.7.7,20.8,1.7.2,0,.4,0,.6.1-4.3-6.7-10.7-12-18.2-14.9-4.4-1.7-9.1-2.7-14.1-2.7-21.3,0-38.5,17.2-38.5,38.5s5.8,23.3,14.8,30.3c6.5,5.1,14.8,8.2,23.7,8.2s18.2-3.4,24.9-9.1c-.3,0-.5,0-.8,0-12.7-1.1-32.2-1.9-42-10.2-5.5-4.7-8-11.7-4.7-22.4,4.6-14.8,19-19.1,33.5-19.4Z"/>
  <path class="st1" d="M100.4,75.8c-6.8-1.4-16.7-3.1-26.1-2.8-12.9.4-24.9,4.4-26.4,17.7-.6,4.8-.5,7.5,3,10.5.1.1.3.3.4.4h0c0,0,0,0,0,0,7,5.8,23.8,7.4,36.1,8.2,3,.2,5.6.4,7.9.5,4.3-6,6.9-13.2,7.1-21.1,0-.4,0-.9,0-1.3,0-4.3-.7-8.4-2-12.3Z"/>
</svg>