<svg version="1.1" id="Layer_1" xmlns:x="ns_extend;" xmlns:i="ns_ai;" xmlns:graph="ns_graphs;" xmlns="http://www.w3.org/2000/svg" xmlns:xlink="http://www.w3.org/1999/xlink" x="0px" y="0px" viewBox="0 0 180.8 56" style="enable-background:new 0 0 180.8 56;" xml:space="preserve">
 <style type="text/css">
  .st0{fill:#FFFFFF;}
 </style>
 <metadata>
  <sfw xmlns="ns_sfw;">
   <slices>
   </slices>
   <sliceSourceBounds bottomLeftOrigin="true" height="56" width="180.8" x="-76.8" y="0.5">
   </sliceSourceBounds>
  </sfw>
 </metadata>
 <g>
  <path class="st0" d="M9.2,0H1.6C0.7,0,0,0.7,0,1.6v6.5C0,9,0.7,9.7,1.6,9.7h7.6c0.9,0,1.6-0.7,1.6-1.6V1.6C10.8,0.7,10.1,0,9.2,0z">
  </path>
  <path class="st0" d="M55.6,0h-6.6c-0.9,0-1.6,0.7-1.6,1.6v26.2c0,0.5-0.7,0.7-1,0.3L31.3,0.7C31,0.3,30.6,0,30,0H19.2
		c-0.9,0-1.6,0.7-1.6,1.6v41.9c0,0.9,0.7,1.6,1.6,1.6h6.6c0.9,0,1.6-0.7,1.6-1.6v-27c0-0.5,0.7-0.7,1-0.3l15.7,28.2
		c0.3,0.4,0.7,0.7,1.2,0.7h10.4c0.9,0,1.6-0.7,1.6-1.6V1.6C57.1,0.7,56.4,0,55.6,0L55.6,0z">
  </path>
  <path class="st0" d="M95,28.7c0-11.8-7.7-17.7-16.1-17.7c-10.9,0-17.2,7.6-17.2,17.9c0,11.7,7.8,17.2,16.9,17.2s14.4-4.7,15.8-10.8
		c0.2-0.8-0.3-1.5-1.4-1.5h-5.2c-0.6,0-1.1,0.3-1.3,0.9c-1.3,2.8-3.4,4.3-7.3,4.3c-4.5,0-7.5-2.8-8-8.6h22.1
		C94.4,30.5,95,29.8,95,28.7z M71.6,24.3c1-4.2,3.4-6.1,7.1-6.1c3.3,0,6.2,1.9,6.6,6.1H71.6z">
  </path>
  <path class="st0" d="M179.2,11.9h-6.6c-0.9,0-1.6,0.7-1.6,1.6v30c0,0.9,0.7,1.6,1.6,1.6h6.6c0.9,0,1.6-0.7,1.6-1.6v-30
		C180.8,12.6,180.1,11.9,179.2,11.9z">
  </path>
  <path class="st0" d="M130.3,11.9h-6.6c-0.9,0-1.6,0.7-1.6,1.6v1.6c-2-2.3-5.2-3.9-9.4-3.9c-9.5,0-14.5,8.6-14.5,17.7
		c0,7.9,4.1,16.8,14.3,16.8c3.6,0,7.5-1.7,9.6-4.2v12.9c0,0.9,0.7,1.6,1.6,1.6h6.6c0.9,0,1.6-0.7,1.6-1.6V13.5
		C131.9,12.6,131.2,11.9,130.3,11.9L130.3,11.9z M115.4,38.7c-4.3,0-7.3-3.2-7.3-10s3-10.4,7.3-10.4s7.3,3.3,7.3,10.4
		C122.8,35.8,119.7,38.7,115.4,38.7z">
  </path>
  <path class="st0" d="M165.2,11.9h-6.6c-0.9,0-1.6,0.7-1.6,1.6v17c0,5.5-2.4,7.1-5.5,7.1c-3.1,0-5.5-1.6-5.5-7.1v-17
		c0-0.9-0.7-1.6-1.6-1.6h-6.6c-0.9,0-1.6,0.7-1.6,1.6v17.7c0,10.5,5.8,14.7,15.3,14.7c9.5,0,15.3-4.3,15.3-14.7V13.5
		C166.9,12.6,166.2,11.9,165.2,11.9L165.2,11.9z">
  </path>
 </g>
</svg>