<?xml version="1.0" encoding="UTF-8"?>
<svg id="Layer_1" xmlns="http://www.w3.org/2000/svg" version="1.1" viewBox="0 0 128 128">
  <!-- Generator: Adobe Illustrator 29.4.0, SVG Export Plug-In . SVG Version: 2.1.0 Build 152)  -->
  <defs>
    <style>
      .st0 {
        fill: #7f3895;
      }

      .st1 {
        fill: #f57e20;
      }

      .st2 {
        fill: #ffcb07;
      }

      .st3 {
        fill: #fff;
      }

      .st4 {
        fill: #48c4d9;
      }

      .st5 {
        display: none;
      }
    </style>
  </defs>
  <g>
    <circle class="st2" cx="47.5" cy="89.6" r="34"/>
    <circle class="st0" cx="81.2" cy="46.1" r="41.7"/>
    <circle class="st1" cx="88" cy="89.5" r="23.3" transform="translate(-14.7 161.6) rotate(-80.6)"/>
    <circle class="st4" cx="32.2" cy="56.8" r="27.1"/>
    <path class="st3" d="M23.3,66.4c-2.7-2.3-2.8-4.2-2.4-7.7,1.9-16.3,26-12.8,37.2-10.4,3.6.8,7.4,1.9,11,3,3.4,1.1,12.8,5.1,15.4,5,.6,0,1.2-.1,1.7-.4,5.8-10.1,20.6-21.8,10.7-34.2-7.5-9.3-23.2-6.6-26.3,5.1-2.5,9.4,3.7,14.8,8.4,21.9-8-2.4-16.1-5.3-24.4-6.6-13-2.2-33.4-3.2-38.3,12.5-6.6,21.1,18.9,21.8,32.9,23,1.9.1,3.9.3,5.8.4,4,.4,8,.6,12,.9,7.6.6,24.5,1.4,29.2,8.2,5.3,7.6-4.4,11.3-10.1,13-5.6,1.6-11.6,2.3-17.4,2.8-2,.1-18.5,1.3-23.2.4-1.6-.3-1.9-3.4-4.1-4.8-10.3-6.7-16.2,10.8-5.9,13,5.6,1.2,5.8-2.5,8.2-2.9,5-1,15.7-.3,21.4-.5,3.2-.1,5.8,0,8.9-.4,10.7-1.2,33.7-4.9,28.1-20.8-3.6-10.4-21.9-12.4-31.2-13.3-1.2-.1-15.1-.8-16.4-.9-8.1-.6-25-1.1-31.2-6.2h0ZM77.1,30.1c0-4.3,3.5-7.8,7.8-7.8s7.8,3.5,7.8,7.8-3.5,7.8-7.8,7.8-7.8-3.5-7.8-7.8Z"/>
  </g>
  <g class="st5">
    <g>
      <path class="st2" d="M-78.6,84c-.3,1.3.8,1.3,1.5,1.9,3.5,2.7,8,6,12.3,6.9-.5,9.6,0,18.4,5.7,26.4-2.8.2-26.3,1.9-33,.6s-2.7-4.8-5.8-6.8c-14.6-9.5-23,15.4-8.4,18.5,7.9,1.7,8.3-3.5,11.7-4.1,7.1-1.4,22.3-.4,30.4-.7,4.5-.2,8.2,0,12.6-.6.4.5.8,1.6,1.3,1.9-8.4,14-26.9,21.9-43,20.7-30.8-2.4-53.3-34.8-41.9-64.1,12.8,10.3,33.4,11,46.6,1,.9-.7,1.9-.8,1.8-2.3,2.7.2,5.5.4,8.2.6h0Z"/>
      <path class="st1" d="M-2.5,84c10.7,19.6-1.3,44.9-23.1,48.9s-18.6-.3-24.7-4.9c-.4-.3-.8-1.4-1.3-1.9,15.2-1.7,47.8-6.9,39.9-29.5-5.1-14.7-31.1-17.6-44.3-18.9,14.2-17.2,43-12.9,53.5,6.3h0Z"/>
      <path class="st1" d="M-59.1,119.2c-5.8-8-6.2-16.8-5.7-26.4l3.1-7.5c10.8.9,34.8,2,41.5,11.6,6.7,9.6-6.3,16-14.3,18.4s-16.5,3.3-24.7,4h.1Z"/>
      <path class="st0" d="M-61.6,85.2l-3.1,7.5c-4.3-.9-8.8-4.2-12.3-6.9s-1.8-.6-1.5-1.9c5.7.5,11.3.8,17,1.3h0Z"/>
    </g>
    <g>
      <path class="st4" d="M-96.8,18.6c7,2.8,13.5,8.2,17.6,14.5-18.4-3.1-47.4-4.5-54.3,17.7-9.3,30,26.9,30.9,46.7,32.6,0,1.4-.9,1.6-1.8,2.3-13.2,10-33.8,9.3-46.6-1-33.9-27.2-2.6-82.2,38.4-66h0Z"/>
      <path class="st4" d="M-74.2,41.8c3.2,12.2,1.8,24-5,34.6-11.5-.9-35.5-1.6-44.3-8.8s-4-5.9-3.4-10.9c2.7-23.2,36.9-18.2,52.8-14.8h0Z"/>
      <g>
        <path class="st0" d="M-2.5,84c-10.5-19.2-39.2-23.5-53.5-6.3-1.7-.2-21.5-1.1-23.3-1.3,6.8-10.6,8.3-22.4,5-34.6,5.1,1.1,10.5,2.7,15.6,4.2,4.8,1.5,18.1,7.3,21.8,7.1s1.7-.2,2.4-.6C-26.2,38.2-5.3,21.5-19.3,4c-10.6-13.2-32.9-9.3-37.4,7.3-3.6,13.4,5.3,21,11.9,31.1-11.4-3.4-22.8-7.5-34.6-9.4-4.1-6.2-10.6-11.7-17.6-14.5C-83.8-17.4-40.8-31.9-8.5-10.6,24.2,11,26.7,58.2-2.7,83.9h.2Z"/>
        <circle class="st0" cx="-36" cy="16.1" r="11.1"/>
      </g>
    </g>
  </g>
</svg>